# xmcd CD database file
#
# Track frame offsets:
#	180
#	17053
#	33160
#	47186
#	62990
#	77967
#	96132
#	112701
#	127597
#	137523
#	153009
#	168332
#	182771
#	199897
#	215325
#	232672
#	246624
#
# Disc length: 3501 seconds
#
# Revision: 0
# Processed by: cddbd v1.5PL3 Copyright (c) Steve Scherf et al.
# Submitted via: CDex 1.51
#
DISCID=d60dab11
DTITLE=Maljean Jean Francois - Legendes
DYEAR=1900
DGENRE=Jazz
TTITLE0=Carnavals
TTITLE1=La Chêne de Rendez Vous 
TTITLE2=Via Mansuerisca
TTITLE3=Le dolmen de Solwaster
TTITLE4=Every Breath you Take
TTITLE5=La ballade de La hoegne
TTITLE6=Laetare
TTITLE7=Faits D'hivers
TTITLE8=Fanfare
TTITLE9=A junkies Lament 
TTITLE10=La cascade du Bayehon
TTITLE11=Noir Flohay
TTITLE12=Trô Marê
TTITLE13=Ephémérides
TTITLE14=Le secret des Templiers
TTITLE15=La croix des Fiancés
TTITLE16=Cantus
EXTD=
EXTT0=
EXTT1=
EXTT2=
EXTT3=
EXTT4=
EXTT5=
EXTT6=
EXTT7=
EXTT8=
EXTT9=
EXTT10=
EXTT11=
EXTT12=
EXTT13=
EXTT14=
EXTT15=
EXTT16=
PLAYORDER=
